<svg width="30" height="30" viewBox="0 0 30 30" fill="none" xmlns="http://www.w3.org/2000/svg">
<path fill-rule="evenodd" clip-rule="evenodd" d="M14.9781 9.50037C23.0847 9.50037 29.6563 11.9874 29.6563 15.0554C29.6563 18.1233 23.0847 20.6104 14.9781 20.6104C6.87147 20.6104 0.299805 18.1233 0.299805 15.0554C0.299805 11.9874 6.87147 9.50037 14.9781 9.50037Z" fill="#4057A5"/>
<path fill-rule="evenodd" clip-rule="evenodd" d="M15.8584 15.0543L14.9781 18.1787L14.0977 15.0543L14.9781 11.9297L15.8584 15.0543Z" fill="white"/>
<path fill-rule="evenodd" clip-rule="evenodd" d="M14.9778 14.5257L21.1137 15.0554L14.9778 15.585L8.8418 15.0554L14.9778 14.5257Z" fill="white"/>
<path fill-rule="evenodd" clip-rule="evenodd" d="M15.1976 15.4339L11.3979 17.1211L14.7589 14.6741L18.5585 12.9869L15.1976 15.4339Z" fill="white"/>
<path fill-rule="evenodd" clip-rule="evenodd" d="M14.7589 15.4339L11.3979 12.9869L15.1976 14.6741L18.5585 17.1211L14.7589 15.4339Z" fill="white"/>
</svg>
